<?xml version="1.0" encoding="UTF-8"?>
<svg xmlns="http://www.w3.org/2000/svg" viewBox="0 0 836 508">
  <defs>
    <style>
      .cls-1 {
        fill: #cecece;
        opacity: .77;
      }

      .cls-2 {
        fill: #adadad;
        stroke: #adadad;
        stroke-miterlimit: 10;
        stroke-width: 3px;
      }
    </style>
  </defs>
  <g id="Capa_1" data-name="Capa 1">
    <g>
      <path class="cls-2" d="M118.28,114.85v64.98h3.88v-12.79h21.6v38.96h-21.6v-20.35h-3.88v24.23h267.06v-95.03H118.28ZM236.63,163.16v-44.43h36.77v44.43h-36.77ZM190.85,163.16v-44.43h41.89v44.43h-41.89ZM122.16,163.16v-44.43h64.82v44.43h-64.82ZM147.64,206v-38.96h39.24v38.96h-39.24ZM190.76,206v-38.96h41.99v38.96h-41.99ZM236.63,206v-38.96h36.77v38.96h-36.77ZM381.46,206h-104.18v-38.96h24.76v36.31h3.88v-36.31h23.36v36.31h3.88v-36.31h23.67v36.31h3.88v-36.31h20.76v38.96ZM277.27,163.16v-44.43h104.18v44.43h-104.18Z"/>
      <rect class="cls-2" x="432.86" y="132.17" width="3.88" height="18.26"/>
      <rect class="cls-2" x="432.86" y="159.79" width="3.88" height="18.26"/>
      <rect class="cls-2" x="432.86" y="245.71" width="3.88" height="18.26"/>
      <rect class="cls-2" x="87.2" y="302.01" width="3.88" height="25.5"/>
      <rect class="cls-2" x="432.86" y="225.82" width="3.88" height="9.13"/>
      <rect class="cls-2" x="432.86" y="189.03" width="3.88" height="28.41"/>
      <polygon class="cls-2" points="246.32 96.49 351.36 96.49 351.36 92.61 246.32 92.61 246.32 67.11 242.44 67.11 242.44 96.56 246.32 96.56 246.32 96.49"/>
      <rect class="cls-2" x="305.69" y="67.22" width="29.44" height="3.88"/>
      <rect class="cls-2" x="260.11" y="67.22" width="35.52" height="3.88"/>
      <rect class="cls-2" x="246.45" y="67.22" width="9.02" height="3.88"/>
      <polygon class="cls-2" points="451.24 113.27 451.24 286.93 455.12 286.93 455.12 109.39 451.46 109.39 451.24 109.39 436.74 109.39 432.86 109.39 405.3 109.39 401.42 109.39 401.42 286.93 405.3 286.93 405.3 113.27 432.86 113.27 432.86 120.94 436.74 120.94 436.74 113.27 451.24 113.27"/>
      <path class="cls-2" d="M118.28,228.48v110.03h267.06v-113.91H118.28v3.88ZM122.16,289.92h21.49v44.71h-21.49v-44.71ZM362.53,334.63h-40.34v-44.71h40.34v44.71ZM318.31,334.63h-41.04v-44.71h41.04v44.71ZM273.39,334.63h-36.77v-44.71h36.77v44.71ZM232.75,334.63h-85.22v-44.71h85.22v44.71ZM381.46,334.63h-15.05v-44.71h15.05v44.71ZM381.46,228.48v57.56h-18.82v-57.56h18.82ZM358.76,228.48v57.56h-25.61v-57.56h25.61ZM329.27,228.48v57.56h-23.36v-57.56h23.36ZM302.04,228.48v57.56h-25.57v-57.56h25.57ZM272.59,228.48v57.56h-35.96v-57.56h35.96ZM232.75,228.48v57.56h-41.99v-57.56h41.99ZM186.88,228.48v57.56h-39.24v-57.56h39.24ZM143.76,228.48v57.56h-21.6v-57.56h21.6Z"/>
      <rect class="cls-2" x="80.75" y="164.27" width="19.77" height="125.65"/>
      <rect class="cls-2" x="73.42" y="111.27" width="29.43" height="25.73"/>
      <path class="cls-2" d="M568.4,182.58V53.16h-68.68v-28.53H60.23v378.06h439.47v-1.44h68.7v-49.91c37.5-7.14,64.67-42.55,64.67-84.38s-27.17-77.24-64.67-84.38ZM449.52,26.93v64.67h-81.17v-32.12h61.55v-3.88h-61.55v-28.66h81.17ZM149.47,26.93h39.44v26.72h-39.44v-26.72ZM64.11,398.81v-38.41h38.85v38.41h-38.85ZM106.85,398.81v-38.41h38.85v38.41h-38.85ZM149.58,398.81v-38.41h39.24v38.41h-39.24ZM192.7,398.81v-38.41h40.05v38.41h-40.05ZM236.63,398.81v-38.41h39.84v38.41h-39.84ZM280.35,398.81v-38.41h17.81v38.41h-17.81ZM302.04,398.81v-38.41h37.01v38.41h-37.01ZM342.93,398.81v-38.41h39.47v38.41h-39.47ZM386.28,398.81v-28.51h65.05v-3.88h-65.05v-9.89H64.11V26.93h32.53v67.61h3.88V26.93h45.06v66.46h3.88v-35.85h39.44v39.02h35.26v-29.44h-3.88v25.56h-27.5V26.93h27.5v30.6h3.88v-30.6h6.75v30.6h3.88v-30.6h40.03v28.66h-33.61v3.88h93.91v-3.88h-56.43v-28.66h85.76v28.66h-18.88v3.88h18.88v36h88.93V26.93h14.78v89.02h3.88V26.93h23.78v42.22h-21.17v3.88h21.17v261.59h-48.81v3.88h48.81v60.3h-109.56ZM567.81,350.43l-.41.08v49.74h-67.2V54.16h67.2v129.25l.41.08c37.23,6.87,64.26,41.98,64.26,83.47s-27.02,76.6-64.26,83.48Z"/>
    </g>
  </g>
  <g id="cuadrante">
    <rect id="cuadrante1" class="cls-1" x="60.11" y="22.93" width="216.24" height="190.5"/>
    <rect id="cuadrante2" class="cls-1" x="274.28" y="22.93" width="225.92" height="190.5"/>
    <rect id="cuadrante4" class="cls-1" x="274.28" y="210.71" width="225.92" height="190.5"/>
    <rect id="cuadrante3" class="cls-1" x="60.11" y="210.71" width="216.24" height="190.5"/>
  </g>
</svg>