<?xml version="1.0" encoding="UTF-8"?><svg id="a" xmlns="http://www.w3.org/2000/svg" viewBox="0 0 427.83 416.66"><rect y="20.31" width="427.83" height="6.03" fill="#b2b2b2" stroke-width="0"/><rect x="52.36" y="103.46" width="270.57" height="6.03" fill="#b2b2b2" stroke-width="0"/><rect x="381.07" y="105.14" width="40.55" height="6.03" fill="#b2b2b2" stroke-width="0"/><rect x="387.1" y="318.27" width="40.55" height="6.03" fill="#b2b2b2" stroke-width="0"/><rect x="-178.54" y="203.81" width="363.11" height="6.03" transform="translate(209.83 203.81) rotate(90)" fill="#b2b2b2" stroke-width="0"/><rect x="16.28" y="61.35" width="78.2" height="6.03" transform="translate(119.74 8.98) rotate(90)" fill="#b2b2b2" stroke-width="0"/><rect x="277.52" y="214.72" width="213.13" height="6.03" transform="translate(601.81 -166.35) rotate(90)" fill="#b2b2b2" stroke-width="0"/><rect x="265.3" y="270.07" width="108.91" height="6.03" transform="translate(592.84 -46.67) rotate(90)" fill="#b2b2b2" stroke-width="0"/><rect x="272.45" y="241.53" width="51.81" height="6.03" transform="translate(542.9 -53.82) rotate(90)" fill="#b2b2b2" stroke-width="0"/><rect x="278.48" y="177.72" width="36.47" height="6.03" transform="translate(477.45 -115.98) rotate(90)" fill="#b2b2b2" stroke-width="0"/><rect x="295.34" y="218.63" width="27.32" height="6.03" transform="translate(618.01 443.29) rotate(180)" fill="#b2b2b2" stroke-width="0"/><rect x="295.34" y="192.94" width="27.32" height="6.03" transform="translate(618.01 391.91) rotate(180)" fill="#b2b2b2" stroke-width="0"/><rect x="275.1" y="151.13" width="89.48" height="6.19" transform="translate(474.06 -165.61) rotate(90)" fill="#b2b2b2" stroke-width="0"/><rect x="381.68" y="65.2" width="85.9" height="6.03" transform="translate(492.85 -356.42) rotate(90)" fill="#b2b2b2" stroke-width="0"/><rect x="395.21" y="349.92" width="58.83" height="6.03" transform="translate(777.57 -71.7) rotate(90)" fill="#b2b2b2" stroke-width="0"/><rect x="50.18" y="157.54" width="249.55" height="6.03" fill="#b2b2b2" stroke-width="0"/><rect x="50.18" y="270.45" width="266.56" height="6.03" fill="#b2b2b2" stroke-width="0"/><rect x="50.18" y="323.52" width="272.59" height="6.03" fill="#b2b2b2" stroke-width="0"/><rect x="6.03" y="382.35" width="421.62" height="6.03" fill="#b2b2b2" stroke-width="0"/><rect x="130.43" y="11.22" width="203.97" height="41.88" fill="none" stroke="#b2b2b2" stroke-miterlimit="10" stroke-width="3"/><rect x="55.88" y="106.47" width="264.38" height="54.08" fill="none" stroke="#b2b2b2" stroke-miterlimit="10" stroke-width="3"/><rect x="50.18" y="273.46" width="269.57" height="53.07" fill="none" stroke="#b2b2b2" stroke-miterlimit="10" stroke-width="3"/><circle cx="37.23" cy="15.65" r="15.65" fill="#000" opacity=".3" stroke-width="0"/><circle cx="378.01" cy="15.65" r="15.65" fill="#000" opacity=".3" stroke-width="0"/><circle cx="304.11" cy="202.99" r="15.65" fill="#000" opacity=".3" stroke-width="0"/><circle cx="47.19" cy="138.58" r="15.65" fill="#000" opacity=".3" stroke-width="0"/><circle cx="31.54" cy="292.12" r="15.65" fill="#000" opacity=".3" stroke-width="0"/><circle cx="389.74" cy="401.01" r="15.65" fill="#000" opacity=".3" stroke-width="0"/><circle cx="186.47" cy="97.63" r="15.65" fill="#000" opacity=".3" stroke-width="0"/><circle cx="178.69" cy="270.45" r="15.65" fill="#000" opacity=".3" stroke-width="0"/></svg>