<?xml version="1.0" encoding="UTF-8"?><svg xmlns="http://www.w3.org/2000/svg" viewBox="0 0 1224.85 494"><g id="a"><path d="M117.44,105.4h264.54v6.03h-.16v89.48h-6.03v-89.48H111.41V28.28h-46.34v356.02h415.59v-58.06h-40.55V107.08h40.55V28.28H117.44v77.13ZM109.23,159.48h249.55v41.43h-6.03v-35.41H109.23v-6.03ZM381.82,325.46v6.03H109.23v-6.03h266.56v-47.05H109.23v-6.03h245.16v-51.81h6.03v51.81h15.37v-51.81h6.03v104.89Z" fill="none" stroke-width="0"/><path d="M59.05,22.25v368.07h427.64v-70.11h-40.55V113.11h40.55V28.28h.18v-6.03H59.05ZM480.67,107.08h-40.55v219.15h40.55v58.06H65.07V28.28h46.34v83.15h264.38v89.48h6.03v-89.48h.16v-6.03H117.44V28.28h363.23v78.81Z" fill="#b2b2b2" stroke-width="0"/><polygon points="375.79 272.39 360.42 272.39 360.42 220.58 354.39 220.58 354.39 272.39 109.23 272.39 109.23 278.42 375.79 278.42 375.79 325.46 109.23 325.46 109.23 331.49 381.82 331.49 381.82 329.48 381.82 325.46 381.82 220.58 375.79 220.58 375.79 272.39" fill="#b2b2b2" stroke-width="0"/><polygon points="352.75 200.91 358.78 200.91 358.78 165.51 358.78 164.45 358.78 159.48 109.23 159.48 109.23 165.51 352.75 165.51 352.75 200.91" fill="#b2b2b2" stroke-width="0"/></g><g id="b"><g id="c"><rect id="d" x="58.65" y="22.63" width="214.8" height="184.08" fill="#90a09f" isolation="isolate" opacity=".5" stroke-width="0"/><rect id="e" x="272.35" y="22.57" width="214.8" height="184.08" fill="#90a09f" isolation="isolate" opacity=".5" stroke-width="0"/><rect id="f" x="59.21" y="205.24" width="214.8" height="184.08" fill="#90a09f" isolation="isolate" opacity=".5" stroke-width="0"/><rect id="g" x="272.35" y="205.18" width="214.8" height="184.08" fill="#90a09f" isolation="isolate" opacity=".5" stroke-width="0"/></g></g></svg>