<?xml version="1.0" encoding="UTF-8"?>
<svg xmlns="http://www.w3.org/2000/svg" viewBox="0 0 537 459">
  <defs>
    <style>
      .cls-1, .cls-2, .cls-3 {
        fill: none;
        stroke: #adadad;
        stroke-miterlimit: 10;
      }

      .cls-2 {
        stroke-width: 5px;
      }

      .cls-3 {
        stroke-width: 3px;
      }

      .cls-4 {
        fill: #cecece;
        opacity: .77;
      }

      .cls-5 {
        fill: #adadad;
      }
    </style>
  </defs>
  <g id="cls-1">
    <rect class="cls-5" x="164.95" y="39.73" width="7.82" height="7.66"/>
    <rect class="cls-5" x="104.16" y="68.02" width="7.82" height="7.66"/>
    <rect class="cls-5" x="104.16" y="86.28" width="7.82" height="7.66"/>
    <rect class="cls-5" x="104.16" y="322.57" width="7.82" height="7.66"/>
    <rect class="cls-5" x="164.95" y="120.46" width="7.82" height="7.66"/>
    <rect class="cls-5" x="164.95" y="144.03" width="7.82" height="7.66" transform="translate(3.3 -3.69) rotate(1.26)"/>
    <rect class="cls-5" x="166.15" y="263.06" width="7.82" height="7.66" transform="translate(5.93 -3.68) rotate(1.26)"/>
    <rect class="cls-5" x="166.15" y="286.63" width="7.82" height="7.66" transform="translate(6.45 -3.68) rotate(1.26)"/>
    <rect class="cls-5" x="188.42" y="39.73" width="7.82" height="7.66"/>
    <rect class="cls-5" x="204.67" y="39.73" width="7.82" height="7.66"/>
    <rect class="cls-5" x="226.94" y="39.73" width="7.82" height="7.66"/>
    <line class="cls-3" x1="155.92" y1="89.82" x2="206.48" y2="89.82"/>
    <line class="cls-2" x1="155.92" y1="105.44" x2="206.48" y2="105.44"/>
    <line class="cls-3" x1="155.92" y1="118.99" x2="206.48" y2="118.99"/>
    <line class="cls-3" x1="155.92" y1="131.36" x2="206.48" y2="131.36"/>
    <line class="cls-3" x1="155.92" y1="141.97" x2="206.48" y2="141.97"/>
    <line class="cls-3" x1="155.92" y1="170.25" x2="206.48" y2="170.25"/>
    <line class="cls-3" x1="155.92" y1="182.63" x2="206.48" y2="182.63"/>
    <line class="cls-3" x1="155.92" y1="193.82" x2="206.48" y2="193.82"/>
    <line class="cls-3" x1="155.92" y1="221.52" x2="206.48" y2="221.52"/>
    <line class="cls-3" x1="155.92" y1="232.71" x2="206.48" y2="232.71"/>
    <line class="cls-3" x1="155.92" y1="243.91" x2="206.48" y2="243.91"/>
    <line class="cls-3" x1="154.72" y1="272.19" x2="205.28" y2="272.19"/>
    <line class="cls-3" x1="155.92" y1="283.98" x2="206.48" y2="283.98"/>
    <line class="cls-3" x1="155.92" y1="296.35" x2="206.48" y2="296.35"/>
    <line class="cls-2" x1="154.72" y1="156.11" x2="205.28" y2="156.11"/>
    <line class="cls-2" x1="154.72" y1="258.05" x2="205.28" y2="258.05"/>
    <line class="cls-2" x1="154.72" y1="311.67" x2="205.28" y2="311.67"/>
    <line class="cls-2" x1="154.72" y1="207.38" x2="205.28" y2="207.38"/>
    <line class="cls-3" x1="233.57" y1="89.82" x2="284.12" y2="89.82"/>
    <line class="cls-3" x1="263.96" y1="31.48" x2="263.96" y2="58.59"/>
    <line class="cls-3" x1="291.65" y1="29.72" x2="291.65" y2="56.82"/>
    <line class="cls-3" x1="303.08" y1="29.72" x2="303.08" y2="56.82"/>
    <line class="cls-3" x1="330.17" y1="29.72" x2="330.17" y2="56.82"/>
    <line class="cls-3" x1="341.61" y1="29.72" x2="341.61" y2="56.82"/>
    <line class="cls-3" x1="369.89" y1="29.72" x2="369.89" y2="56.82"/>
    <line class="cls-3" x1="381.33" y1="29.13" x2="381.33" y2="56.23"/>
    <line class="cls-3" x1="408.42" y1="29.13" x2="408.42" y2="56.23"/>
    <line class="cls-3" x1="419.85" y1="29.72" x2="419.85" y2="56.82"/>
    <line class="cls-2" x1="233.57" y1="105.44" x2="284.12" y2="105.44"/>
    <line class="cls-3" x1="233.57" y1="118.99" x2="284.12" y2="118.99"/>
    <line class="cls-3" x1="233.57" y1="131.36" x2="284.12" y2="131.36"/>
    <line class="cls-3" x1="233.57" y1="141.97" x2="284.12" y2="141.97"/>
    <rect class="cls-5" x="321.44" y="120.46" width="7.82" height="7.66"/>
    <rect class="cls-5" x="321.44" y="144.03" width="7.82" height="7.66" transform="translate(3.34 -7.14) rotate(1.26)"/>
    <line class="cls-3" x1="312.41" y1="89.82" x2="362.97" y2="89.82"/>
    <line class="cls-2" x1="312.41" y1="105.44" x2="362.97" y2="105.44"/>
    <line class="cls-3" x1="312.41" y1="118.99" x2="362.97" y2="118.99"/>
    <line class="cls-3" x1="312.41" y1="131.36" x2="362.97" y2="131.36"/>
    <line class="cls-3" x1="312.41" y1="141.97" x2="362.97" y2="141.97"/>
    <line class="cls-3" x1="312.41" y1="170.25" x2="362.97" y2="170.25"/>
    <line class="cls-3" x1="312.41" y1="182.63" x2="362.97" y2="182.63"/>
    <line class="cls-3" x1="312.41" y1="193.82" x2="362.97" y2="193.82"/>
    <line class="cls-3" x1="312.41" y1="221.52" x2="362.97" y2="221.52"/>
    <line class="cls-3" x1="312.41" y1="232.71" x2="362.97" y2="232.71"/>
    <line class="cls-3" x1="312.41" y1="243.91" x2="362.97" y2="243.91"/>
    <line class="cls-3" x1="311.21" y1="272.19" x2="361.77" y2="272.19"/>
    <line class="cls-3" x1="312.41" y1="283.98" x2="362.97" y2="283.98"/>
    <line class="cls-3" x1="312.41" y1="296.35" x2="362.97" y2="296.35"/>
    <line class="cls-2" x1="311.21" y1="156.11" x2="361.77" y2="156.11"/>
    <line class="cls-2" x1="311.21" y1="258.05" x2="361.77" y2="258.05"/>
    <line class="cls-2" x1="311.21" y1="311.67" x2="361.77" y2="311.67"/>
    <line class="cls-2" x1="311.21" y1="207.38" x2="361.77" y2="207.38"/>
    <rect class="cls-5" x="398.48" y="120.46" width="7.82" height="7.66"/>
    <rect class="cls-5" x="398.48" y="144.03" width="7.82" height="7.66" transform="translate(3.36 -8.84) rotate(1.26)"/>
    <line class="cls-3" x1="389.46" y1="89.82" x2="440.01" y2="89.82"/>
    <line class="cls-2" x1="389.46" y1="105.44" x2="440.01" y2="105.44"/>
    <line class="cls-3" x1="389.46" y1="118.99" x2="440.01" y2="118.99"/>
    <line class="cls-3" x1="389.46" y1="131.36" x2="440.01" y2="131.36"/>
    <line class="cls-3" x1="389.46" y1="141.97" x2="440.01" y2="141.97"/>
    <line class="cls-3" x1="389.46" y1="170.25" x2="440.01" y2="170.25"/>
    <line class="cls-3" x1="389.46" y1="182.63" x2="440.01" y2="182.63"/>
    <line class="cls-3" x1="389.46" y1="193.82" x2="440.01" y2="193.82"/>
    <line class="cls-3" x1="389.46" y1="221.52" x2="440.01" y2="221.52"/>
    <line class="cls-3" x1="389.46" y1="232.71" x2="440.01" y2="232.71"/>
    <line class="cls-3" x1="389.46" y1="243.91" x2="440.01" y2="243.91"/>
    <line class="cls-3" x1="388.25" y1="272.19" x2="438.81" y2="272.19"/>
    <line class="cls-3" x1="389.46" y1="283.98" x2="440.01" y2="283.98"/>
    <line class="cls-3" x1="389.46" y1="296.35" x2="440.01" y2="296.35"/>
    <line class="cls-2" x1="388.25" y1="156.11" x2="438.81" y2="156.11"/>
    <line class="cls-2" x1="388.25" y1="258.05" x2="438.81" y2="258.05"/>
    <line class="cls-2" x1="388.25" y1="311.67" x2="438.81" y2="311.67"/>
    <line class="cls-2" x1="388.25" y1="207.38" x2="438.81" y2="207.38"/>
    <rect class="cls-5" x="474.37" y="120.46" width="4.64" height="7.66"/>
    <polygon class="cls-5" points="478.96 151.78 474.32 151.6 474.42 143.95 479.06 144.12 478.96 151.78"/>
    <line class="cls-3" x1="469.02" y1="89.82" x2="499" y2="89.82"/>
    <line class="cls-3" x1="469.02" y1="80.98" x2="499" y2="80.98"/>
    <line class="cls-3" x1="469.02" y1="70.37" x2="499" y2="70.37"/>
    <line class="cls-2" x1="469.02" y1="105.44" x2="499" y2="105.44"/>
    <line class="cls-3" x1="469.02" y1="118.99" x2="499" y2="118.99"/>
    <line class="cls-3" x1="469.02" y1="131.36" x2="499" y2="131.36"/>
    <line class="cls-3" x1="469.02" y1="141.97" x2="499" y2="141.97"/>
    <line class="cls-3" x1="469.02" y1="170.25" x2="499" y2="170.25"/>
    <line class="cls-3" x1="469.02" y1="182.63" x2="499" y2="182.63"/>
    <line class="cls-3" x1="469.02" y1="193.82" x2="499" y2="193.82"/>
    <line class="cls-3" x1="469.02" y1="221.52" x2="499" y2="221.52"/>
    <line class="cls-3" x1="469.02" y1="232.71" x2="499" y2="232.71"/>
    <line class="cls-3" x1="469.02" y1="243.91" x2="499" y2="243.91"/>
    <line class="cls-2" x1="468.3" y1="156.11" x2="498.29" y2="156.11"/>
    <line class="cls-2" x1="468.3" y1="258.05" x2="498.29" y2="258.05"/>
    <line class="cls-2" x1="468.3" y1="207.38" x2="498.29" y2="207.38"/>
    <line class="cls-3" x1="252.53" y1="31.78" x2="252.53" y2="57.71"/>
    <line class="cls-2" x1="200.16" y1="32.07" x2="200.16" y2="58"/>
    <line class="cls-2" x1="161.64" y1="32.07" x2="161.64" y2="58"/>
    <line class="cls-2" x1="238.68" y1="30.31" x2="238.68" y2="56.23"/>
    <line class="cls-2" x1="278.41" y1="30.89" x2="278.41" y2="56.82"/>
    <line class="cls-2" x1="316.93" y1="30.31" x2="316.93" y2="56.23"/>
    <line class="cls-2" x1="355.45" y1="30.31" x2="355.45" y2="56.23"/>
    <line class="cls-2" x1="395.17" y1="29.72" x2="395.17" y2="55.64"/>
    <path class="cls-3" d="M433.09,30.89v25.93s-.06,3.83,1.77,4.12h63.53"/>
    <line class="cls-3" x1="263.96" y1="337.89" x2="263.96" y2="365"/>
    <line class="cls-3" x1="291.65" y1="336.13" x2="291.65" y2="363.23"/>
    <line class="cls-3" x1="303.08" y1="336.13" x2="303.08" y2="363.23"/>
    <line class="cls-3" x1="330.17" y1="336.13" x2="330.17" y2="363.23"/>
    <line class="cls-3" x1="341.61" y1="336.13" x2="341.61" y2="363.23"/>
    <line class="cls-3" x1="369.89" y1="336.13" x2="369.89" y2="363.23"/>
    <line class="cls-3" x1="381.33" y1="335.54" x2="381.33" y2="362.64"/>
    <line class="cls-3" x1="408.42" y1="335.54" x2="408.42" y2="362.64"/>
    <line class="cls-3" x1="419.85" y1="336.13" x2="419.85" y2="363.23"/>
    <line class="cls-3" x1="252.53" y1="338.19" x2="252.53" y2="364.12"/>
    <line class="cls-3" x1="224.84" y1="337.89" x2="224.84" y2="365"/>
    <line class="cls-3" x1="213.4" y1="338.19" x2="213.4" y2="364.12"/>
    <line class="cls-3" x1="186.92" y1="337.89" x2="186.92" y2="365"/>
    <line class="cls-3" x1="175.48" y1="338.19" x2="175.48" y2="364.12"/>
    <line class="cls-3" x1="146.59" y1="337.89" x2="146.59" y2="365"/>
    <line class="cls-3" x1="135.16" y1="338.19" x2="135.16" y2="364.12"/>
    <line class="cls-2" x1="200.16" y1="338.48" x2="200.16" y2="364.41"/>
    <line class="cls-2" x1="161.64" y1="338.48" x2="161.64" y2="364.41"/>
    <line class="cls-2" x1="238.68" y1="336.72" x2="238.68" y2="362.64"/>
    <line class="cls-2" x1="278.41" y1="337.31" x2="278.41" y2="363.23"/>
    <line class="cls-2" x1="316.93" y1="336.72" x2="316.93" y2="362.64"/>
    <line class="cls-2" x1="355.45" y1="336.72" x2="355.45" y2="362.64"/>
    <line class="cls-2" x1="395.17" y1="336.13" x2="395.17" y2="362.05"/>
    <line class="cls-2" x1="457.77" y1="337.31" x2="457.77" y2="363.23"/>
    <line class="cls-2" x1="481.24" y1="337.31" x2="481.24" y2="363.23"/>
    <path class="cls-2" d="M472.82,270.72v31.59c0,.83,0,1.12-.6,1.12h-4.21c-.6,0-.6.59-.6,3.54v21.6s-.6,3.74-5.42,4.92h-24.08c-3.15,0-5.04-.03-4.86.71.03.13.05.26.05.4v28.64"/>
    <polygon class="cls-5" points="498.95 359.93 498.95 51.52 494.18 51.52 493.93 51.52 476.73 51.52 476.73 31.91 476.73 31.48 476.73 27 84.6 27 84.6 31.91 471.06 31.91 471.06 56.82 475.68 56.82 476.73 56.82 493.93 56.82 493.93 359.93 89.66 359.93 89.66 32.07 84.65 32.07 84.65 359.93 84.6 359.93 84.6 364.84 499 364.84 499 359.93 498.95 359.93"/>
    <path class="cls-5" d="M279.91,152.59v-.31h-38.87c-.46-.19-.96-.29-1.49-.29h-1.15c-.53,0-1.03.11-1.49.29h-.95v.57c-.91.72-1.5,1.82-1.5,3.08v151.8c0,2.18,1.76,3.94,3.94,3.94h1.15c2.18,0,3.94-1.76,3.94-3.94v-148.38h.3v107.24h29.49v41.43c0,2.18,1.76,3.94,3.94,3.94h1.15c2.18,0,3.94-1.76,3.94-3.94v-151.8c0-1.63-.99-3.03-2.41-3.63Z"/>
    <rect class="cls-5" x="103.56" y="149.92" width="7.82" height="116.67"/>
    <rect class="cls-5" x="111.98" y="149.92" width="7.82" height="116.67"/>
    <rect class="cls-3" x="96.64" y="77.74" width="25.28" height="6.48"/>
    <rect class="cls-3" x="96.64" y="314.03" width="25.28" height="6.48"/>
    <rect class="cls-5" x="126.73" y="134.31" width="2.41" height="20.03"/>
    <rect class="cls-5" x="130.04" y="134.6" width="2.41" height="20.03"/>
    <rect class="cls-5" x="134.25" y="134.6" width="2.41" height="20.03"/>
    <rect class="cls-5" x="137.86" y="134.6" width="2.41" height="20.03"/>
    <rect class="cls-5" x="142.08" y="134.6" width="2.41" height="20.03"/>
    <rect class="cls-5" x="145.69" y="134.6" width="2.41" height="20.03"/>
    <rect class="cls-5" x="149.3" y="134.6" width="2.41" height="20.03"/>
    <rect class="cls-5" x="152.91" y="134.6" width="2.41" height="20.03"/>
    <rect class="cls-5" x="126.73" y="263.94" width="2.41" height="20.03"/>
    <rect class="cls-5" x="130.04" y="264.24" width="2.41" height="20.03"/>
    <rect class="cls-5" x="134.25" y="264.24" width="2.41" height="20.03"/>
    <rect class="cls-5" x="137.86" y="264.24" width="2.41" height="20.03"/>
    <rect class="cls-5" x="142.08" y="264.24" width="2.41" height="20.03"/>
    <rect class="cls-5" x="145.69" y="264.24" width="2.41" height="20.03"/>
    <rect class="cls-5" x="149.3" y="264.24" width="2.41" height="20.03"/>
    <rect class="cls-5" x="152.91" y="264.24" width="2.41" height="20.03"/>
    <line class="cls-2" x1="493.88" y1="272.19" x2="471.61" y2="272.19"/>
    <rect class="cls-5" x="120.11" y="279.56" width="5.72" height="34.18"/>
    <rect class="cls-5" x="97.54" y="102.19" width=".6" height="27.11"/>
    <rect class="cls-5" x="108.97" y="102.19" width=".6" height="26.52"/>
    <rect class="cls-5" x="108.98" y="117.27" width=".59" height="23.47" transform="translate(238.28 19.73) rotate(90)"/>
    <rect class="cls-5" x="120.41" y="102.19" width="6.02" height="27.11"/>
    <line class="cls-1" x1="145.39" y1="32.07" x2="145.39" y2="51.52"/>
    <line class="cls-1" x1="122.52" y1="32.07" x2="122.52" y2="51.52"/>
    <line class="cls-1" x1="134.55" y1="51.22" x2="122.82" y2="51.22"/>
    <line class="cls-1" x1="145.39" y1="51.22" x2="142.38" y2="51.22"/>
    <path class="cls-1" d="M124.32,51.52v12.67s-.6,2.83-2.41,2.59h-25.28v30.62h24.98"/>
    <line class="cls-1" x1="449.75" y1="31.91" x2="449.75" y2="58.64"/>
    <line class="cls-1" x1="470.71" y1="47.1" x2="458.37" y2="47.12"/>
    <line class="cls-1" x1="470.71" y1="41.8" x2="458.37" y2="41.82"/>
    <path class="cls-5" d="M95.73,332.59l26.18.35s2.11-.35,2.11,2.67v24.32h-3.21v-23.72h-25.08v-3.61Z"/>
    <rect class="cls-1" x="96.03" y="321.4" width="26.78" height="11.2"/>
    <g id="cls-1-2" data-name="cls-1">
      <line class="cls-1" x1="157" y1="133.25" x2="157" y2="140"/>
      <line class="cls-1" x1="158.5" y1="133.25" x2="158.5" y2="140"/>
      <line class="cls-1" x1="160" y1="133.25" x2="160" y2="140"/>
      <line class="cls-1" x1="161.5" y1="133.25" x2="161.5" y2="140"/>
      <line class="cls-1" x1="163" y1="133.25" x2="163" y2="140"/>
      <line class="cls-1" x1="164.5" y1="133.25" x2="164.5" y2="140"/>
      <line class="cls-1" x1="166" y1="133.25" x2="166" y2="140"/>
      <line class="cls-1" x1="167.5" y1="133.25" x2="167.5" y2="140"/>
      <line class="cls-1" x1="169" y1="133.25" x2="169" y2="140"/>
      <line class="cls-1" x1="170.5" y1="133.25" x2="170.5" y2="140"/>
      <line class="cls-1" x1="172" y1="133.25" x2="172" y2="140"/>
      <line class="cls-1" x1="173.5" y1="133.25" x2="173.5" y2="140"/>
    </g>
    <g id="cls-1-3" data-name="cls-1">
      <line class="cls-1" x1="157" y1="274.25" x2="157" y2="281"/>
      <line class="cls-1" x1="158.5" y1="274.25" x2="158.5" y2="281"/>
      <line class="cls-1" x1="160" y1="274.25" x2="160" y2="281"/>
      <line class="cls-1" x1="161.5" y1="274.25" x2="161.5" y2="281"/>
      <line class="cls-1" x1="163" y1="274.25" x2="163" y2="281"/>
      <line class="cls-1" x1="164.5" y1="274.25" x2="164.5" y2="281"/>
      <line class="cls-1" x1="166" y1="274.25" x2="166" y2="281"/>
      <line class="cls-1" x1="167.5" y1="274.25" x2="167.5" y2="281"/>
      <line class="cls-1" x1="169" y1="274.25" x2="169" y2="281"/>
      <line class="cls-1" x1="170.5" y1="274.25" x2="170.5" y2="281"/>
      <line class="cls-1" x1="172" y1="274.25" x2="172" y2="281"/>
      <line class="cls-1" x1="173.5" y1="274.25" x2="173.5" y2="281"/>
    </g>
  </g>
  <g id="cls-2">
    <rect id="cuadrante1" class="cls-4" x="84.93" y="27" width="202.56" height="168.13"/>
    <rect id="cuadrante2" class="cls-4" x="287.37" y="27" width="211.63" height="168.13"/>
    <rect id="cuadrante2-2" data-name="cuadrante2" class="cls-4" x="287.37" y="194.87" width="211.63" height="168.13"/>
    <rect id="cuadrante3" class="cls-4" x="84.93" y="194.49" width="202.56" height="168.13"/>
  </g>
</svg>