<?xml version="1.0" encoding="UTF-8"?>
<svg xmlns="http://www.w3.org/2000/svg" viewBox="0 0 882 815">
  <defs>
    <style>
      .cls-1 {
        fill: none;
        stroke: #adadad;
        stroke-miterlimit: 10;
        stroke-width: 3px;
      }

      .cls-2 {
        fill: #cecece;
        opacity: .77;
      }

      .cls-3 {
        fill: #adadad;
      }
    </style>
  </defs>
  <g id="cuadrantes">
    <rect id="cuadrante1" class="cls-2" x="108.24" y="52.09" width="333.51" height="293.82"/>
    <rect id="cuadrante2" class="cls-2" x="438.56" y="52.09" width="348.44" height="293.82"/>
    <rect id="cuadrante4" class="cls-2" x="438.56" y="341.7" width="348.44" height="293.82"/>
    <rect id="cuadrante3" class="cls-2" x="108.24" y="341.7" width="333.51" height="293.82"/>
  </g>
  <g id="muros">
    <rect class="cls-3" x="104.5" y="627.06" width="266.67" height="8.33"/>
    <rect class="cls-3" x="112.83" y="536.78" width="502.78" height="8.33"/>
    <rect class="cls-3" x="642" y="536.78" width="143.05" height="8.33"/>
    <rect class="cls-3" x="447.55" y="627.06" width="345.83" height="8.33"/>
    <rect class="cls-3" x="104.5" y="50.67" width="676.39" height="8.33"/>
    <rect class="cls-3" x="169" y="103" width="29" height="2"/>
    <rect class="cls-3" x="301" y="103" width="14" height="1.67"/>
    <rect class="cls-3" x="341" y="99" width="44" height="5"/>
    <rect class="cls-3" x="310.17" y="99" width="7.83" height="1.83" transform="translate(414 -214.17) rotate(90)"/>
    <rect class="cls-3" x="551.33" y="100" width="92.67" height="4"/>
    <rect class="cls-3" x="402" y="100" width="132" height="3.67"/>
    <rect class="cls-3" x="315" y="96" width="70" height="3.67"/>
    <rect class="cls-3" x="148.08" y="79.92" width="44" height="2.17" transform="translate(251.08 -89.08) rotate(90)"/>
    <rect class="cls-3" x="189.5" y="65.5" width="15" height="2" transform="translate(263.5 -130.5) rotate(90)"/>
    <rect class="cls-3" x="187.5" y="92.5" width="19" height="2" transform="translate(290.5 -103.5) rotate(90)"/>
    <rect class="cls-3" x="290.53" y="76.47" width="38" height="3.05" transform="translate(387.53 -231.53) rotate(90)"/>
    <rect class="cls-3" x="215.36" y="302.75" width="54.17" height="5.56" transform="translate(547.97 63.09) rotate(90)"/>
    <rect class="cls-3" x="109.36" y="203.47" width="51.16" height="3.89" transform="translate(340.36 70.47) rotate(90)"/>
    <rect class="cls-3" x="146.17" y="202.06" width="48.61" height="4.17" transform="translate(374.61 33.67) rotate(90)"/>
    <rect class="cls-3" x="128.08" y="202.75" width="48.16" height="2.33" transform="translate(356.08 51.75) rotate(90)"/>
    <rect class="cls-3" x="133" y="227.28" width="39.56" height="4.17" transform="translate(305.56 458.73) rotate(180)"/>
    <rect class="cls-3" x="275.14" y="292.14" width="31.55" height="4.17" transform="translate(585.14 3.31) rotate(90)"/>
    <rect class="cls-3" x="300.64" y="293.64" width="34.55" height="4.17" transform="translate(613.64 -22.19) rotate(90)"/>
    <rect class="cls-3" x="328.03" y="291.64" width="30.55" height="4.17" transform="translate(637.03 -49.58) rotate(90)"/>
    <rect class="cls-3" x="339.22" y="381.22" width="37.5" height="4.17" transform="translate(741.28 25.34) rotate(90)"/>
    <rect class="cls-3" x="269.39" y="378.45" width="26.39" height="4.17" transform="translate(663.11 97.95) rotate(90)"/>
    <rect class="cls-3" x="251.72" y="399.28" width="33.28" height="4.17" transform="translate(536.72 802.72) rotate(180)"/>
    <rect class="cls-3" x="293" y="416" width="40" height="3.45" transform="translate(626 835.45) rotate(180)"/>
    <rect class="cls-3" x="343" y="416" width="30" height="3.45" transform="translate(716 835.45) rotate(180)"/>
    <rect class="cls-3" x="235.58" y="383.31" width="36.11" height="4.17" transform="translate(639.03 131.75) rotate(90)"/>
    <rect class="cls-3" x="198.31" y="407.08" width="83.67" height="4.17" transform="translate(649.31 169.03) rotate(90)"/>
    <rect class="cls-3" x="364.22" y="381.22" width="37.5" height="4.17" transform="translate(766.28 .34) rotate(90)"/>
    <rect class="cls-3" x="340.64" y="431.25" width="34.67" height="4.17" transform="translate(791.3 75.36) rotate(90)"/>
    <rect class="cls-3" x="317.11" y="431.78" width="34.67" height="3.11" transform="translate(767.78 98.89) rotate(90)"/>
    <rect class="cls-3" x="261.75" y="427.75" width="41.67" height="4.17" transform="translate(712.42 147.25) rotate(90)"/>
    <rect class="cls-3" x="351.14" y="293.14" width="35.55" height="4.17" transform="translate(664.14 -73.69) rotate(90)"/>
    <rect class="cls-3" x="365.03" y="303.64" width="54.55" height="4.17" transform="translate(698.03 -86.58) rotate(90)"/>
    <rect class="cls-3" x="389.22" y="303.45" width="54.17" height="4.17" transform="translate(721.83 -110.77) rotate(90)"/>
    <rect class="cls-3" x="96" y="272" width="13" height="2.39" transform="translate(205 546.39) rotate(180)"/>
    <rect class="cls-3" x="96" y="456" width="16.89" height="2.39" transform="translate(208.89 914.39) rotate(180)"/>
    <rect class="cls-3" x="276" y="309.22" width="16" height="4.17" transform="translate(568 622.61) rotate(180)"/>
    <rect class="cls-3" x="250.53" y="293.86" width="34.11" height="4.17" transform="translate(-28.36 563.53) rotate(-90)"/>
    <rect class="cls-3" x="245.17" y="308.22" width="14.83" height="4.17" transform="translate(505.17 620.61) rotate(180)"/>
    <rect class="cls-3" x="290.61" y="309.22" width="19.39" height="4.17" transform="translate(600.61 622.61) rotate(180)"/>
    <rect class="cls-3" x="326" y="308.22" width="17.39" height="4.17" transform="translate(669.39 620.61) rotate(180)"/>
    <rect class="cls-3" x="343.39" y="308.22" width="15.28" height="4.17" transform="translate(702.05 620.61) rotate(180)"/>
    <rect class="cls-3" x="375.94" y="308.22" width="15.28" height="4.17" transform="translate(767.16 620.61) rotate(180)"/>
    <rect class="cls-3" x="398.94" y="306.22" width="15.28" height="4.17" transform="translate(813.16 616.61) rotate(180)"/>
    <rect class="cls-3" x="230.89" y="150.67" width="52.78" height="5.56" transform="translate(410.72 -103.83) rotate(90)"/>
    <rect class="cls-3" x="421.86" y="302.75" width="54.17" height="5.56" transform="translate(754.47 -143.41) rotate(90)"/>
    <rect class="cls-3" x="398.78" y="406.39" width="83.67" height="5.56" transform="translate(849.78 -31.44) rotate(90)"/>
    <rect class="cls-3" x="403.11" y="493.72" width="80.56" height="5.56" transform="translate(939.89 53.11) rotate(90)"/>
    <rect class="cls-3" x="335.05" y="493.72" width="80.56" height="5.56" transform="translate(871.83 121.17) rotate(90)"/>
    <rect class="cls-3" x="446" y="406.39" width="83.67" height="5.56" transform="translate(897 -78.66) rotate(90)"/>
    <rect class="cls-3" x="588.94" y="563.11" width="36.06" height="5.56" transform="translate(1213.94 1131.78) rotate(180)"/>
    <rect class="cls-3" x="554.5" y="570.11" width="16.67" height="5.56" transform="translate(1125.66 1145.78) rotate(180)"/>
    <rect class="cls-3" x="632.89" y="563.44" width="38.11" height="5.56" transform="translate(1303.89 1132.45) rotate(180)"/>
    <rect class="cls-3" x="676.94" y="563" width="37.06" height="5" transform="translate(1390.94 1131) rotate(180)"/>
    <rect class="cls-3" x="701.72" y="595.11" width="12.5" height="5.56" transform="translate(1415.94 1195.78) rotate(180)"/>
    <rect class="cls-3" x="743.16" y="571.5" width="12.5" height="5.56" transform="translate(1498.83 1148.56) rotate(180)"/>
    <rect class="cls-3" x="755.97" y="558.31" width="31.94" height="5.56" transform="translate(210.86 1333.03) rotate(-90)"/>
    <rect class="cls-3" x="537" y="402.28" width="42.22" height="5.56" transform="translate(1116.22 810.11) rotate(180)"/>
    <rect class="cls-3" x="538" y="379.28" width="42.22" height="5.56" transform="translate(1118.22 764.11) rotate(180)"/>
    <rect class="cls-3" x="539" y="406.89" width="84.67" height="5.56" transform="translate(991 -171.66) rotate(90)"/>
    <rect class="cls-3" x="530.89" y="557.61" width="30.56" height="5.56" transform="translate(1106.55 14.22) rotate(90)"/>
    <rect class="cls-3" x="145.92" y="511.08" width="45.83" height="5.56" transform="translate(682.69 345.03) rotate(90)"/>
    <rect class="cls-3" x="116.75" y="511.08" width="45.83" height="5.56" transform="translate(653.53 374.2) rotate(90)"/>
    <rect class="cls-3" x="136.58" y="502.75" width="34.72" height="5.56" transform="translate(659.47 351.58) rotate(90)"/>
    <rect class="cls-3" x="639.67" y="595.72" width="58.06" height="4.61" transform="translate(1266.72 -70.67) rotate(90)"/>
    <rect class="cls-3" x="683.58" y="592.25" width="64.06" height="5.56" transform="translate(1310.64 -120.58) rotate(90)"/>
    <rect class="cls-3" x="691.08" y="656.92" width="48.61" height="5.56" transform="translate(1375.08 -55.69) rotate(90)"/>
    <rect class="cls-3" x="719.08" y="656.92" width="48.61" height="5.56" transform="translate(1403.08 -83.69) rotate(90)"/>
    <rect class="cls-3" x="713" y="681.22" width="27.61" height="2.78" transform="translate(1453.61 1365.22) rotate(180)"/>
    <rect class="cls-3" x="725.41" y="558.31" width="31.94" height="5.56" transform="translate(1302.47 -180.3) rotate(90)"/>
    <rect class="cls-3" x="733.86" y="597.69" width="19.06" height="5.56" transform="translate(1343.86 -142.91) rotate(90)"/>
    <rect class="cls-3" x="746.16" y="590.94" width="38.89" height="5.56" transform="translate(1531.22 1187.45) rotate(180)"/>
    <rect class="cls-3" x="555.89" y="554.83" width="25" height="5.56" transform="translate(1126 -10.78) rotate(90)"/>
    <rect class="cls-3" x="149" y="564.67" width="43" height="5.56" transform="translate(341 1134.89) rotate(180)"/>
    <rect class="cls-3" x="111.56" y="565.67" width="31.44" height="5.56" transform="translate(254.56 1136.89) rotate(180)"/>
    <rect class="cls-3" x="231.89" y="593.33" width="61.78" height="5.56" transform="translate(-333.33 858.89) rotate(-90)"/>
    <rect class="cls-3" x="322.89" y="593.33" width="61.78" height="5.56" transform="translate(-242.33 949.89) rotate(-90)"/>
    <rect class="cls-3" x="365.89" y="597.33" width="69.78" height="5.56" transform="translate(-199.33 1000.89) rotate(-90)"/>
    <rect class="cls-3" x="410.89" y="597.33" width="69.78" height="5.56" transform="translate(-154.33 1045.89) rotate(-90)"/>
    <rect class="cls-3" x="455.89" y="595.33" width="69.78" height="5.56" transform="translate(-107.33 1088.89) rotate(-90)"/>
    <rect class="cls-3" x="499.89" y="596.33" width="69.78" height="5.56" transform="translate(-64.33 1133.89) rotate(-90)"/>
    <rect class="cls-3" x="546.28" y="596.72" width="67" height="5.56" transform="translate(-19.72 1179.28) rotate(-90)"/>
    <rect class="cls-3" x="588" y="596" width="69" height="5" transform="translate(24 1221) rotate(-90)"/>
    <rect class="cls-3" x="112" y="596" width="56" height="6" transform="translate(-459 739) rotate(-90)"/>
    <rect class="cls-3" x="603.39" y="551.78" width="18.89" height="5.56" transform="translate(1167.39 -58.28) rotate(90)"/>
    <rect class="cls-3" x="367" y="406.22" width="83.33" height="5.56" transform="translate(817.67 .34) rotate(90)"/>
    <rect class="cls-3" x="553.8" y="302.75" width="54.17" height="5.56" transform="translate(886.42 -275.36) rotate(90)"/>
    <rect class="cls-3" x="485.75" y="302.75" width="54.17" height="5.56" transform="translate(818.36 -207.3) rotate(90)"/>
    <rect class="cls-3" x="167" y="150.67" width="52.78" height="5.56" transform="translate(346.84 -39.94) rotate(90)"/>
    <rect class="cls-3" x="166.31" y="302.75" width="54.17" height="5.56" transform="translate(498.92 112.14) rotate(90)"/>
    <rect class="cls-3" x="149.64" y="226.36" width="87.5" height="5.56" transform="translate(422.53 35.75) rotate(90)"/>
    <rect class="cls-3" x="153.11" y="406.22" width="83.33" height="5.56" transform="translate(603.78 214.22) rotate(90)"/>
    <rect class="cls-3" x="287.83" y="150.67" width="52.78" height="5.56" transform="translate(467.67 -160.77) rotate(90)"/>
    <rect class="cls-3" x="348.94" y="150.67" width="52.78" height="5.56" transform="translate(528.78 -221.89) rotate(90)"/>
    <rect class="cls-3" x="679.78" y="208.67" width="40.22" height="5.56" transform="translate(1399.78 422.89) rotate(180)"/>
    <rect class="cls-3" x="679.78" y="251.67" width="40.22" height="5.56" transform="translate(1399.78 508.89) rotate(180)"/>
    <rect class="cls-3" x="679.78" y="296.67" width="40.22" height="5.56" transform="translate(1399.78 598.89) rotate(180)"/>
    <rect class="cls-3" x="679.78" y="340.67" width="40.22" height="4.33" transform="translate(1399.78 685.67) rotate(180)"/>
    <rect class="cls-3" x="679.78" y="384.67" width="40.22" height="5.56" transform="translate(1399.78 774.89) rotate(180)"/>
    <rect class="cls-3" x="679.78" y="405.67" width="40.22" height="5.56" transform="translate(1399.78 816.89) rotate(180)"/>
    <rect class="cls-3" x="680.78" y="428.67" width="40.22" height="5.56" transform="translate(1401.78 862.89) rotate(180)"/>
    <rect class="cls-3" x="551.86" y="158.25" width="100.14" height="5.56" transform="translate(1203.86 322.06) rotate(180)"/>
    <rect class="cls-3" x="571.16" y="225.67" width="88.89" height="5.56" transform="translate(844.06 -387.16) rotate(90)"/>
    <rect class="cls-3" x="504.5" y="150.67" width="52.78" height="5.56" transform="translate(684.33 -377.44) rotate(90)"/>
    <rect class="cls-3" x="422.89" y="76.72" width="41" height="5.56" transform="translate(522.89 -363.89) rotate(90)"/>
    <rect class="cls-3" x="558.94" y="78.06" width="42" height="3.89" transform="translate(659.94 -499.94) rotate(90)"/>
    <rect class="cls-3" x="620.97" y="76.97" width="41" height="5.06" transform="translate(720.97 -561.97) rotate(90)"/>
    <rect class="cls-3" x="665" y="108.22" width="104" height="5.56" transform="translate(828 -606) rotate(90)"/>
    <rect class="cls-3" x="724.64" y="76.36" width="43.06" height="5.56" transform="translate(825.31 -667.02) rotate(90)"/>
    <rect class="cls-3" x="709.19" y="170.19" width="68" height="5.61" transform="translate(916.19 -570.19) rotate(90)"/>
    <rect class="cls-3" x="124.5" y="77.5" width="42" height="5" transform="translate(225.5 -65.5) rotate(90)"/>
    <rect class="cls-3" x="126.17" y="96" width="16.83" height="5" transform="translate(269.17 197) rotate(180)"/>
    <rect class="cls-3" x="190.61" y="121.5" width="466.66" height="5.56"/>
    <rect class="cls-3" x="190.61" y="179.84" width="461.11" height="5.56"/>
    <rect class="cls-3" x="190.61" y="332.61" width="461.11" height="5.56"/>
    <rect class="cls-3" x="192" y="450.67" width="418.05" height="5.56"/>
    <rect class="cls-3" x="192" y="361.78" width="423.61" height="5.56"/>
    <rect class="cls-3" x="190.61" y="272.89" width="461.11" height="5.56"/>
    <rect class="cls-3" x="548.94" y="229.84" width="211.11" height="5.56" transform="translate(887.11 -421.88) rotate(90)"/>
    <rect class="cls-3" x="527.94" y="449.11" width="169.78" height="5.56" transform="translate(1064.72 -160.94) rotate(90)"/>
    <rect class="cls-3" x="663.89" y="230.22" width="28" height="5.56" transform="translate(910.89 -444.89) rotate(90)"/>
    <rect class="cls-3" x="663.89" y="273.22" width="28" height="5.56" transform="translate(953.89 -401.89) rotate(90)"/>
    <rect class="cls-3" x="658.89" y="323.22" width="38" height="5.56" transform="translate(1003.89 -351.89) rotate(90)"/>
    <rect class="cls-3" x="663.89" y="362.22" width="28" height="5.56" transform="translate(1042.89 -312.89) rotate(90)"/>
    <rect class="cls-3" x="664.39" y="427.72" width="27" height="5.56" transform="translate(1108.39 -247.39) rotate(90)"/>
    <rect class="cls-3" x="668.39" y="190.72" width="19" height="5.56" transform="translate(871.39 -484.39) rotate(90)"/>
    <rect class="cls-3" x="367" y="650.67" width="84.72" height="4.17"/>
    <rect class="cls-3" x="442" y="640.94" width="15.28" height="4.17" transform="translate(-193.39 1092.67) rotate(-90)"/>
    <rect class="cls-3" x="361.44" y="640.94" width="15.28" height="4.17" transform="translate(-273.95 1012.11) rotate(-90)"/>
    <rect class="cls-3" x="-.25" y="163.75" width="214" height="4.5" transform="translate(272.75 59.25) rotate(90)"/>
    <rect class="cls-3" x="70.25" y="494.25" width="81" height="4.5" transform="translate(607.25 385.75) rotate(90)"/>
    <rect class="cls-3" x="713.83" y="117.83" width="143.33" height="9" transform="translate(907.83 -663.17) rotate(90)"/>
    <rect class="cls-3" x="724.78" y="207" width="21.22" height="5.95" transform="translate(1470.78 419.95) rotate(180)"/>
    <rect class="cls-3" x="745.78" y="188" width="43.22" height="5.95" transform="translate(1534.78 381.95) rotate(180)"/>
    <rect class="cls-3" x="6.5" y="363.5" width="184" height="5" transform="translate(464.5 267.5) rotate(90)"/>
    <rect class="cls-3" x="595.47" y="315.25" width="256.94" height="8.33" transform="translate(1043.36 -404.52) rotate(90)"/>
    <rect class="cls-3" x="646.16" y="447.89" width="138.89" height="8.33" transform="translate(1431.22 904.11) rotate(180)"/>
    <rect class="cls-3" x="683.66" y="131.22" width="62.34" height="8.33" transform="translate(1429.66 270.78) rotate(180)"/>
    <rect class="cls-3" x="676" y="184" width="70" height="8.56" transform="translate(1422 376.56) rotate(180)"/>
    <rect class="cls-3" x="63.53" y="577.75" width="90.28" height="8.33" transform="translate(690.58 473.25) rotate(90)"/>
    <rect class="cls-3" x="699.64" y="533.31" width="179.17" height="8.33" transform="translate(1326.69 -251.75) rotate(90)"/>
    <rect class="cls-1" x="141.44" y="265.17" width="29.17" height="201.39"/>
  </g>
</svg>