<?xml version="1.0" encoding="UTF-8"?>
<svg xmlns="http://www.w3.org/2000/svg" viewBox="0 0 519 405">
  <defs>
    <style>
      .cls-1 {
        fill: none;
        stroke: #adadad;
        stroke-miterlimit: 10;
      }

      .cls-2 {
        fill: #cecece;
      }

      .cls-3 {
        opacity: .54;
      }

      .cls-3, .cls-4 {
        fill: #adadad;
      }
    </style>
  </defs>
  <g id="cls-1">
    <rect class="cls-4" x="82" y="55" width="7" height="39"/>
    <rect class="cls-4" x="82" y="302" width="7" height="39"/>
    <rect class="cls-4" x="47" y="35" width="35" height="3"/>
    <rect class="cls-4" x="340.5" y="202.5" width="289" height="4" transform="translate(689.5 -280.5) rotate(90)"/>
    <rect class="cls-4" x="345.5" y="159.5" width="301" height="2" transform="translate(656.5 -335.5) rotate(90)"/>
    <rect class="cls-4" x="16.5" y="196.5" width="207" height="4" transform="translate(318.5 78.5) rotate(90)"/>
    <rect class="cls-4" x="93" y="375" width="310" height="3"/>
    <rect class="cls-4" x="93" y="352" width="310" height="3"/>
    <rect class="cls-4" x="152" y="95" width="49" height="4"/>
    <rect class="cls-4" x="151" y="83" width="49" height="2"/>
    <rect class="cls-4" x="151" y="110" width="49" height="2"/>
    <rect class="cls-4" x="151" y="121" width="49" height="2"/>
    <rect class="cls-4" x="43.75" y="125.75" width="15" height="1.5" transform="translate(177.75 75.25) rotate(90)"/>
    <rect class="cls-4" x="47.75" y="125.75" width="15" height="1.5" transform="translate(181.75 71.25) rotate(90)"/>
    <rect class="cls-4" x="51.75" y="125.75" width="15" height="1.5" transform="translate(185.75 67.25) rotate(90)"/>
    <rect class="cls-4" x="55.75" y="125.75" width="15" height="1.5" transform="translate(189.75 63.25) rotate(90)"/>
    <rect class="cls-4" x="43.75" y="260.75" width="15" height="1.5" transform="translate(312.75 210.25) rotate(90)"/>
    <rect class="cls-4" x="47.75" y="260.75" width="15" height="1.5" transform="translate(316.75 206.25) rotate(90)"/>
    <rect class="cls-4" x="51.75" y="260.75" width="15" height="1.5" transform="translate(320.75 202.25) rotate(90)"/>
    <rect class="cls-4" x="55.75" y="260.75" width="15" height="1.5" transform="translate(324.75 198.25) rotate(90)"/>
    <rect class="cls-4" x="151" y="133" width="49" height="2"/>
    <rect class="cls-4" x="151" y="159" width="49" height="2"/>
    <rect class="cls-4" x="151" y="171" width="49" height="2"/>
    <rect class="cls-4" x="151" y="183" width="49" height="2"/>
    <rect class="cls-4" x="151" y="209" width="49" height="2"/>
    <rect class="cls-4" x="151" y="220" width="49" height="2"/>
    <rect class="cls-4" x="151" y="233" width="49" height="2"/>
    <rect class="cls-4" x="151" y="260" width="49" height="2"/>
    <rect class="cls-4" x="151" y="271" width="49" height="2"/>
    <rect class="cls-4" x="151" y="283" width="49" height="2"/>
    <rect class="cls-4" x="457" y="349" width="49" height="2"/>
    <rect class="cls-4" x="151" y="145" width="49" height="4"/>
    <rect class="cls-4" x="152" y="245" width="49" height="4"/>
    <rect class="cls-4" x="151" y="296" width="49" height="4"/>
    <rect class="cls-4" x="305" y="95" width="49" height="4"/>
    <rect class="cls-4" x="304" y="83" width="49" height="2"/>
    <rect class="cls-4" x="304" y="110" width="49" height="2"/>
    <rect class="cls-4" x="304" y="121" width="49" height="2"/>
    <rect class="cls-4" x="304" y="133" width="49" height="2"/>
    <rect class="cls-4" x="304" y="159" width="49" height="2"/>
    <rect class="cls-4" x="304" y="171" width="49" height="2"/>
    <rect class="cls-4" x="304" y="183" width="49" height="2"/>
    <rect class="cls-4" x="304" y="209" width="49" height="2"/>
    <rect class="cls-4" x="304" y="220" width="49" height="2"/>
    <rect class="cls-4" x="304" y="233" width="49" height="2"/>
    <rect class="cls-4" x="304" y="260" width="49" height="2"/>
    <rect class="cls-4" x="304" y="271" width="49" height="2"/>
    <rect class="cls-4" x="304" y="283" width="49" height="2"/>
    <rect class="cls-4" x="304" y="145" width="49" height="4"/>
    <rect class="cls-4" x="305" y="245" width="49" height="4"/>
    <rect class="cls-4" x="304" y="296" width="49" height="4"/>
    <rect class="cls-4" x="346.75" y="335.25" width="24.5" height="2" transform="translate(695.25 -22.75) rotate(90)"/>
    <rect class="cls-4" x="357.75" y="335.25" width="24.5" height="2" transform="translate(706.25 -33.75) rotate(90)"/>
    <rect class="cls-4" x="335.75" y="335.25" width="24.5" height="2" transform="translate(684.25 -11.75) rotate(90)"/>
    <rect class="cls-4" x="324.75" y="335.25" width="24.5" height="2" transform="translate(673.25 -.75) rotate(90)"/>
    <rect class="cls-4" x="302.75" y="335.25" width="24.5" height="2" transform="translate(651.25 21.25) rotate(90)"/>
    <rect class="cls-4" x="312.75" y="335.25" width="24.5" height="2" transform="translate(661.25 11.25) rotate(90)"/>
    <rect class="cls-4" x="291.75" y="335.25" width="24.5" height="2" transform="translate(640.25 32.25) rotate(90)"/>
    <rect class="cls-4" x="278.75" y="335.25" width="24.5" height="2" transform="translate(627.25 45.25) rotate(90)"/>
    <rect class="cls-4" x="268.75" y="335.25" width="24.5" height="2" transform="translate(617.25 55.25) rotate(90)"/>
    <rect class="cls-4" x="245.75" y="335.25" width="24.5" height="2" transform="translate(594.25 78.25) rotate(90)"/>
    <rect class="cls-4" x="256.75" y="335.25" width="24.5" height="2" transform="translate(605.25 67.25) rotate(90)"/>
    <rect class="cls-4" x="233.75" y="335.25" width="24.5" height="2" transform="translate(582.25 90.25) rotate(90)"/>
    <rect class="cls-4" x="195.75" y="335.25" width="24.5" height="2" transform="translate(544.25 128.25) rotate(90)"/>
    <rect class="cls-4" x="207.75" y="335.25" width="24.5" height="2" transform="translate(556.25 116.25) rotate(90)"/>
    <rect class="cls-4" x="180.75" y="335.25" width="24.5" height="2" transform="translate(529.25 143.25) rotate(90)"/>
    <rect class="cls-4" x="184.75" y="335.25" width="24.5" height="2" transform="translate(533.25 139.25) rotate(90)"/>
    <rect class="cls-4" x="169.75" y="335.25" width="24.5" height="2" transform="translate(518.25 154.25) rotate(90)"/>
    <rect class="cls-4" x="157.75" y="335.25" width="24.5" height="2" transform="translate(506.25 166.25) rotate(90)"/>
    <rect class="cls-4" x="92.75" y="335.25" width="24.5" height="2" transform="translate(441.25 231.25) rotate(90)"/>
    <rect class="cls-4" x="93" y="360" width="11" height="1" transform="translate(459 262) rotate(90)"/>
    <rect class="cls-4" x="100" y="360" width="11" height="1" transform="translate(466 255) rotate(90)"/>
    <rect class="cls-4" x="105.5" y="369.5" width="10" height="1" transform="translate(480.5 259.5) rotate(90)"/>
    <rect class="cls-4" x="108.5" y="369.5" width="10" height="1" transform="translate(483.5 256.5) rotate(90)"/>
    <rect class="cls-4" x="114" y="367" width="15" height="1" transform="translate(489 246) rotate(90)"/>
    <rect class="cls-4" x="130" y="363" width="7" height="1" transform="translate(497 230) rotate(90)"/>
    <rect class="cls-4" x="143" y="357" width="5" height="1" transform="translate(503 212) rotate(90)"/>
    <rect class="cls-4" x="110" y="365" width="4" height="1" transform="translate(224 731) rotate(180)"/>
    <rect class="cls-4" x="154" y="357" width="5" height="1" transform="translate(514 201) rotate(90)"/>
    <rect class="cls-4" x="188.5" y="359.5" width="10" height="1" transform="translate(553.5 166.5) rotate(90)"/>
    <rect class="cls-4" x="195.5" y="359.5" width="10" height="1" transform="translate(560.5 159.5) rotate(90)"/>
    <rect class="cls-4" x="183.5" y="369.5" width="10" height="1" transform="translate(558.5 181.5) rotate(90)"/>
    <rect class="cls-4" x="169.5" y="366.5" width="16" height="1" transform="translate(544.5 189.5) rotate(90)"/>
    <rect class="cls-4" x="197.5" y="364.5" width="20" height="1" transform="translate(572.5 157.5) rotate(90)"/>
    <rect class="cls-4" x="139" y="364" width="24" height="1" transform="translate(302 729) rotate(180)"/>
    <rect class="cls-4" x="194" y="359" width="13" height="1" transform="translate(401 719) rotate(180)"/>
    <rect class="cls-4" x="194" y="364" width="3" height="1" transform="translate(391 729) rotate(180)"/>
    <rect class="cls-4" x="204" y="364" width="3" height="1" transform="translate(411 729) rotate(180)"/>
    <rect class="cls-4" x="119.75" y="335.25" width="24.5" height="2" transform="translate(468.25 204.25) rotate(90)"/>
    <rect class="cls-4" x="131.75" y="335.25" width="24.5" height="2" transform="translate(480.25 192.25) rotate(90)"/>
    <rect class="cls-4" x="144.75" y="334.25" width="24.5" height="4" transform="translate(493.25 179.25) rotate(90)"/>
    <rect class="cls-4" x="220.75" y="334.25" width="24.5" height="4" transform="translate(569.25 103.25) rotate(90)"/>
    <rect class="cls-4" x="105.75" y="334.25" width="24.5" height="4" transform="translate(454.25 218.25) rotate(90)"/>
    <rect class="cls-4" x="80" y="363" width="26" height="4" transform="translate(458 272) rotate(90)"/>
    <rect class="cls-4" x="227" y="233" width="49" height="2"/>
    <rect class="cls-4" x="227" y="260" width="49" height="2"/>
    <rect class="cls-4" x="227" y="271" width="49" height="2"/>
    <rect class="cls-4" x="227" y="283" width="49" height="2"/>
    <rect class="cls-4" x="228" y="245" width="49" height="4"/>
    <rect class="cls-4" x="227" y="296" width="49" height="4"/>
    <rect class="cls-4" x="382.5" y="95" width="24.5" height="4"/>
    <rect class="cls-4" x="382" y="83" width="24.5" height="2"/>
    <rect class="cls-4" x="383" y="71" width="24.5" height="2"/>
    <rect class="cls-4" x="382" y="61" width="24.5" height="2"/>
    <rect class="cls-4" x="382" y="110" width="24.5" height="2"/>
    <rect class="cls-4" x="382" y="121" width="24.5" height="2"/>
    <rect class="cls-4" x="382" y="133" width="24.5" height="2"/>
    <rect class="cls-4" x="382" y="159" width="24.5" height="2"/>
    <rect class="cls-4" x="382" y="171" width="24.5" height="2"/>
    <rect class="cls-4" x="382" y="183" width="24.5" height="2"/>
    <rect class="cls-4" x="382" y="209" width="24.5" height="2"/>
    <rect class="cls-4" x="382" y="220" width="24.5" height="2"/>
    <rect class="cls-4" x="382" y="233" width="24.5" height="2"/>
    <rect class="cls-4" x="382" y="260" width="24.5" height="2"/>
    <rect class="cls-4" x="382" y="271" width="24.5" height="2"/>
    <rect class="cls-4" x="382" y="283" width="24.5" height="2"/>
    <rect class="cls-4" x="382" y="145" width="24.5" height="4"/>
    <rect class="cls-4" x="382.5" y="245" width="24.5" height="4"/>
    <rect class="cls-4" x="382" y="296" width="24.5" height="4"/>
    <rect class="cls-4" x="48" y="49" width="34" height="2"/>
    <rect class="cls-4" x="101" y="24" width="2" height="24"/>
    <rect class="cls-4" x="91" y="36" width="2" height="12"/>
    <rect class="cls-4" x="73.5" y="36.5" width="2" height="15" transform="translate(118.5 -30.5) rotate(90)"/>
    <rect class="cls-4" x="48" y="111" width="18" height="1"/>
    <rect class="cls-4" x="61" y="109" width="21" height="1"/>
    <rect class="cls-4" x="61" y="122" width="21" height="1"/>
    <rect class="cls-4" x="61" y="134" width="21" height="1"/>
    <rect class="cls-4" x="61" y="147" width="21" height="1"/>
    <rect class="cls-4" x="61" y="159" width="21" height="1"/>
    <rect class="cls-4" x="61" y="172" width="21" height="1"/>
    <rect class="cls-4" x="61" y="184" width="21" height="1"/>
    <rect class="cls-4" x="61" y="197" width="21" height="1"/>
    <rect class="cls-4" x="61" y="209" width="21" height="1"/>
    <rect class="cls-4" x="61" y="222" width="21" height="1"/>
    <rect class="cls-4" x="61" y="234" width="21" height="1"/>
    <rect class="cls-4" x="61" y="247" width="21" height="1"/>
    <rect class="cls-4" x="61" y="259" width="21" height="1"/>
    <rect class="cls-4" x="61" y="272" width="21" height="1"/>
    <rect class="cls-4" x="61" y="284" width="21" height="1"/>
    <rect class="cls-4" x="61" y="297" width="21" height="1"/>
    <rect class="cls-4" x="48" y="113" width="18" height="1"/>
    <rect class="cls-4" x="48" y="115" width="18" height="1"/>
    <rect class="cls-4" x="48" y="117" width="18" height="1"/>
    <rect class="cls-1" x="106.5" y="148.5" width="3" height="98"/>
    <rect class="cls-1" x="100.5" y="141.5" width="15" height="111"/>
    <rect class="cls-1" x="52.5" y="148" width="12.5" height="44.5" rx="2.77" ry="2.77"/>
    <rect class="cls-1" x="52.5" y="201" width="12.5" height="44.5" rx="2.77" ry="2.77"/>
    <rect class="cls-4" x="421" y="60" width="20" height="1"/>
    <rect class="cls-4" x="445" y="60" width="33" height="1"/>
    <rect class="cls-4" x="421" y="94" width="57" height="2"/>
    <rect class="cls-4" x="421" y="60" width="1" height="36"/>
    <rect class="cls-4" x="445" y="60" width="1" height="36"/>
    <rect class="cls-4" x="410" y="166" width="73" height="1"/>
    <rect class="cls-4" x="442" y="180" width="17" height="1"/>
    <rect class="cls-4" x="410" y="199" width="7" height="2"/>
    <rect class="cls-4" x="467" y="180" width="16" height="1"/>
    <rect class="cls-4" x="469" y="193" width="14" height="1"/>
    <rect class="cls-4" x="442" y="194" width="14" height="1"/>
    <rect class="cls-4" x="443" y="212" width="14" height="1"/>
    <rect class="cls-4" x="455.5" y="173.5" width="14" height="1" transform="translate(636.5 -288.5) rotate(90)"/>
    <rect class="cls-4" x="460.5" y="217.5" width="16" height="1" transform="translate(686.5 -250.5) rotate(90)"/>
    <rect class="cls-4" x="460.5" y="192.5" width="16" height="1" transform="translate(661.5 -275.5) rotate(90)"/>
    <rect class="cls-4" x="415.5" y="153.5" width="24" height="1" transform="translate(581.5 -273.5) rotate(90)"/>
    <rect class="cls-4" x="418.5" y="124.5" width="18" height="1" transform="translate(552.5 -302.5) rotate(90)"/>
    <rect class="cls-4" x="410" y="116" width="18" height="1" transform="translate(838 233) rotate(180)"/>
    <rect class="cls-4" x="410" y="129" width="18" height="1" transform="translate(838 259) rotate(180)"/>
    <rect class="cls-4" x="451" y="185" width="11" height="1" transform="translate(642 -271) rotate(90)"/>
    <rect class="cls-4" x="464" y="239" width="9" height="1" transform="translate(708 -229) rotate(90)"/>
    <rect class="cls-4" x="431.5" y="245.5" width="8" height="1" transform="translate(681.5 -189.5) rotate(90)"/>
    <rect class="cls-4" x="436" y="242" width="10" height="1" transform="translate(882 485) rotate(180)"/>
    <rect class="cls-4" x="469" y="205" width="14" height="1"/>
    <rect class="cls-4" x="469" y="230" width="14" height="1"/>
    <rect class="cls-4" x="467" y="243" width="16" height="1"/>
    <rect class="cls-4" x="435" y="249" width="20" height="1"/>
    <rect class="cls-4" x="459" y="243" width="5" height="1"/>
    <rect class="cls-4" x="501" y="236" width="5" height="1"/>
    <rect class="cls-4" x="497" y="319" width="10" height="1"/>
    <rect class="cls-4" x="477" y="319" width="6" height="1"/>
    <rect class="cls-4" x="455" y="325" width="8" height="1"/>
    <rect class="cls-4" x="447" y="340" width="9" height="1"/>
    <rect class="cls-4" x="447" y="326" width="9" height="1"/>
    <rect class="cls-4" x="450" y="324" width="3" height="1"/>
    <rect class="cls-4" x="436" y="336" width="11" height="1"/>
    <rect class="cls-4" x="436" y="341" width="11" height="1"/>
    <rect class="cls-4" x="436" y="325" width="11" height="1"/>
    <rect class="cls-4" x="441" y="331" width="11" height="1" transform="translate(778 -115) rotate(90)"/>
    <rect class="cls-4" x="431" y="331" width="11" height="1" transform="translate(768 -105) rotate(90)"/>
    <rect class="cls-4" x="467" y="319" width="3" height="1"/>
    <rect class="cls-4" x="486" y="319" width="4" height="1"/>
    <rect class="cls-4" x="498" y="336" width="9" height="1"/>
    <rect class="cls-4" x="487" y="336" width="9" height="1"/>
    <rect class="cls-4" x="448" y="346" width="9" height="1"/>
    <rect class="cls-4" x="403" y="352" width="20" height="1"/>
    <rect class="cls-4" x="459" y="256" width="24" height="1"/>
    <rect class="cls-4" x="410" y="272" width="18" height="1"/>
    <rect class="cls-4" x="410" y="297" width="18" height="1"/>
    <rect class="cls-4" x="410" y="309" width="18" height="1"/>
    <rect class="cls-4" x="410" y="284" width="21" height="1"/>
    <rect class="cls-4" x="401" y="283" width="53" height="1" transform="translate(711 -144) rotate(90)"/>
    <rect class="cls-4" x="447" y="256" width="25" height="1" transform="translate(203 716) rotate(-90)"/>
    <rect class="cls-4" x="422.5" y="270.5" width="26" height="1" transform="translate(164.5 706.5) rotate(-90)"/>
    <rect class="cls-4" x="460.5" y="275.5" width="80" height="1" transform="translate(224.5 776.5) rotate(-90)"/>
    <rect class="cls-4" x="466.5" y="275.5" width="80" height="1" transform="translate(230.5 782.5) rotate(-90)"/>
    <rect class="cls-4" x="491" y="335" width="31" height="1" transform="translate(171 842) rotate(-90)"/>
    <rect class="cls-4" x="445.5" y="336.5" width="24" height="1" transform="translate(120.5 794.5) rotate(-90)"/>
    <rect class="cls-4" x="458" y="328" width="19" height="1" transform="translate(139 796) rotate(-90)"/>
    <rect class="cls-4" x="467" y="335" width="19" height="1" transform="translate(141 812) rotate(-90)"/>
    <rect class="cls-4" x="405" y="204" width="75" height="1" transform="translate(238 647) rotate(-90)"/>
    <rect class="cls-4" x="434" y="295" width="29" height="1" transform="translate(153 744) rotate(-90)"/>
    <rect class="cls-4" x="438" y="259" width="21" height="1" transform="translate(189 708) rotate(-90)"/>
    <rect class="cls-4" x="459" y="269" width="24" height="1"/>
    <rect class="cls-4" x="448" y="280" width="35" height="1"/>
    <rect class="cls-4" x="448" y="310" width="35" height="1"/>
    <rect class="cls-4" x="468" y="218" width="15" height="1"/>
    <rect class="cls-1" x="423" y="350" width="19" height="25"/>
    <rect class="cls-1" x="436" y="379" width="19" height="11"/>
    <rect class="cls-1" x="446.5" y="369.5" width="6" height="5"/>
    <rect class="cls-1" x="467.5" y="371.5" width="33" height="21"/>
    <rect class="cls-1" x="459.5" y="378.5" width="8" height="14"/>
    <rect class="cls-4" x="464" y="9" width="33" height="2"/>
    <polygon class="cls-4" points="507 0 464 0 464 6 507 6 507 394 48 394 48 399 507 399 509 399 512 399 512 0 507 0"/>
    <rect class="cls-4" x="440" width="1" height="7"/>
    <rect class="cls-4" x="439" y="23" width="1" height="29"/>
    <rect class="cls-4" x="459" y="23" width="1" height="29"/>
    <rect class="cls-4" x="440" y="23" width="19" height="1"/>
    <rect class="cls-4" x="447" y="30" width="1" height="6"/>
    <rect class="cls-4" x="448" y="35" width="11" height="1"/>
    <rect class="cls-4" x="447" y="40" width="1" height="7"/>
    <rect class="cls-4" x="447" y="40" width="12" height="1"/>
    <rect class="cls-4" x="447" y="51" width="13" height="1"/>
    <rect class="cls-1" x="410" y="140" width="14" height="4"/>
    <polygon class="cls-4" points="406 60 406 324 384 324 384 322 382 322 382 324 382 324 382 326 382 326 382 346 95 346 95 324 91 324 91 346 91 348.5 91 350 384 350 384 346.5 384 346 384 326 410 326 410 325 410 324 410 60 406 60"/>
    <rect class="cls-4" x="256" y="355" width="1" height="20"/>
    <rect class="cls-4" x="296" y="355" width="1" height="20"/>
    <rect class="cls-4" x="334" y="355" width="3" height="20"/>
    <rect class="cls-4" x="404" y="359" width="2" height="17"/>
    <rect class="cls-4" x="228" y="364" width="7" height="5"/>
    <rect class="cls-4" x="340" y="366" width="7" height="4"/>
    <rect class="cls-4" x="279" y="366" width="6" height="4"/>
    <rect class="cls-4" x="276" y="355" width="9" height="4"/>
    <rect class="cls-4" x="396" y="372" width="10" height="4"/>
    <rect class="cls-4" x="84" y="26" width="1" height="20"/>
    <rect class="cls-4" x="84" y="24" width="17" height="2"/>
    <rect class="cls-4" x="67" y="44" width="2" height="5"/>
    <rect class="cls-4" x="117" y="24" width="3" height="23"/>
    <rect class="cls-4" x="194" y="24" width="4" height="23"/>
    <rect class="cls-4" x="216" y="24" width="2" height="23"/>
    <rect class="cls-4" x="232" y="24" width="2" height="23"/>
    <rect class="cls-4" x="269" y="24" width="3" height="23"/>
    <rect class="cls-4" x="282" y="27" width="2" height="20"/>
    <rect class="cls-4" x="295" y="24" width="2" height="4"/>
    <rect class="cls-4" x="277" y="26" width="18" height="2"/>
    <rect class="cls-4" x="346" y="24" width="3" height="23"/>
    <path class="cls-4" d="M273.93,95h-5.87c-1.14,0-2.07.93-2.07,2.07v74.93h-28v-74.43c0-1.42-1.15-2.57-2.57-2.57h-4.86c-1.42,0-2.57,1.15-2.57,2.57v124.43h48v-124.93c0-1.14-.93-2.07-2.07-2.07ZM266,220h-28v-22h28v22ZM266,197h-28v-23h28v23Z"/>
    <rect class="cls-4" x="48" y="134" width="18" height="3"/>
    <rect class="cls-1" x="48" y="118" width="18" height="163"/>
    <g>
      <rect class="cls-4" x="117" y="21" width="162" height="3"/>
      <rect class="cls-4" x="288" y="21" width="26" height="3"/>
      <rect class="cls-4" x="117" y="47" width="21" height="3"/>
      <rect class="cls-4" x="146" y="47" width="18" height="3"/>
      <rect class="cls-4" x="172" y="47" width="7" height="3"/>
      <rect class="cls-4" x="319" y="47" width="51" height="3"/>
      <rect class="cls-4" x="269" y="47" width="44" height="3"/>
      <polygon class="cls-4" points="319 21 319 24 425 24 425 47 376 47 376 50 425 50 427 50 427 47 427 24 427 21 319 21"/>
      <rect class="cls-4" x="211" y="47" width="49" height="3"/>
      <rect class="cls-4" x="188" y="47" width="14" height="3"/>
    </g>
    <rect class="cls-1" x="421" y="223" width="5" height="23"/>
    <rect class="cls-1" x="409.5" y="217.5" width="5" height="29"/>
    <rect class="cls-1" x="409.5" y="196.5" width="13" height="15"/>
    <path class="cls-1" d="M409.5,167.5h16v22.68c0,2.94-2.38,5.32-5.32,5.32h-10.68v-28h0Z"/>
    <rect class="cls-1" x="437.5" y="167.5" width="5" height="74"/>
    <path class="cls-3" d="M78,82h44v12h-56c0-6.62,5.38-12,12-12Z"/>
    <g>
      <rect class="cls-4" x="101" y="93" width="1" height="1"/>
      <rect class="cls-4" x="110" y="93" width="2" height="1"/>
      <polygon class="cls-4" points="106 94 105 94 105 95 106 95 106 120 96 120 96 95 98 95 98 94 96 94 95 94 95 95 95 120 95 121 96 121 106 121 107 121 118 121 118 120 107 120 107 95 108 95 108 94 107 94 106 94"/>
      <rect class="cls-4" x="115" y="94" width="3" height="1"/>
    </g>
  </g>
  <g id="cls-2">
    <circle class="cls-2" cx="312.73" cy="197.35" r="12.27"/>
    <circle class="cls-2" cx="252.73" cy="307.35" r="15.27"/>
    <circle class="cls-2" cx="158.73" cy="195.35" r="12.27"/>
    <circle class="cls-2" cx="104.73" cy="276.35" r="12.27"/>
    <circle class="cls-2" cx="156.73" cy="97.35" r="12.27"/>
    <circle class="cls-2" cx="120.73" cy="12.35" r="12.27"/>
    <circle class="cls-2" cx="418.73" cy="14.35" r="12.27"/>
    <circle class="cls-2" cx="310.73" cy="97.35" r="12.27"/>
    <circle class="cls-2" cx="420.73" cy="95.35" r="12.27"/>
    <circle class="cls-2" cx="439.73" cy="197.35" r="12.27"/>
    <circle class="cls-2" cx="436.73" cy="300.35" r="12.27"/>
    <circle class="cls-2" cx="430.73" cy="368.35" r="12.27"/>
  </g>
</svg>